<?xml version="1.0" encoding="utf-8"?>
<!-- Generator: Adobe Illustrator 21.0.2, SVG Export Plug-In . SVG Version: 6.00 Build 0)  -->
<svg version="1.1" id="Layer_1" xmlns="http://www.w3.org/2000/svg" xmlns:xlink="http://www.w3.org/1999/xlink" x="0px" y="0px"
	 viewBox="0 0 512 512" style="enable-background:new 0 0 512 512;" xml:space="preserve">
<style type="text/css">
	.st0{fill:#E5AC23;}
</style>
<g id="br7TAM.tif">
	<g>
		<path class="st0" d="M104.4,6c8.1,0,16.2,0,24.4,0c2.3,0.9,4.6,1.7,6.9,2.7c15.3,6.7,26.1,17.7,29.6,34.3
			c1.5,6.9,4.4,9.1,11.3,9.1c60.4-0.2,120.9-0.2,181.3,0c6.7,0,10.3-1.8,13.2-8.3c14.7-32.7,56.9-39.9,82.4-14.5
			c15,15,21.1,45.2,2.5,67.9c-4.2,5.1-4.3,10-3.4,15.6c6.5,41.3,13.3,82.6,19.5,124c0.9,5.7,3.2,8.5,8,11.2
			c20.9,11.6,30.3,37.3,23.2,60c-6.7,21.2-28.6,37.9-54.6,34.1c-4.2-0.6-7.9,0.1-11.3,3c-32.1,27.2-64.2,54.4-96.6,81.2
			c-5.1,4.3-5.5,7.6-4,13.7c4.7,18.9,1.4,35.9-13.1,50.2c-15.5,15.3-33.8,17.5-53.1,11.1c-18.6-6.2-29.3-20.3-32.2-39.7
			c-0.6-3.9-1.9-6.7-5.1-8.8c-53.7-36-107.3-72.1-161-108.2c-3.4-2.3-6.9-3.3-10.9-2.4c-8.5,1.9-16.5,0-24.4-2.9
			c-16.8-6.1-26.2-19.1-31.5-35.5c0-7.7,0-15.3,0-23c4.9-16.7,14.6-29.4,31.1-35.7c5-1.9,7-4.7,8.5-9.2c14-43.5,28-87,42.2-130.4
			c1.4-4.4,1-7-2.8-10.3C63.1,76.3,60,49,75.9,25.3C82.9,14.9,93.5,10.3,104.4,6z M265.5,76.4c-28.6,0-57.2,0.3-85.8-0.1
			c-10.2-0.1-19.4-0.2-23.5,11.4c-0.3,0.8-1.1,1.4-1.8,2c-3.2,2.6-3,5.7-1.4,9.1c15.3,33.8,31,67.5,45.7,101.6
			c4.2,9.8,8.8,16.3,20.5,14.1c1.4-0.3,3.2,0.2,4.6,1c11.7,6.6,20.3,1.2,28.2-7c0.5-0.5,1-1,1.5-1.4c25.5-21.3,51.1-42.7,76.6-64
			c15.2-12.7,30.3-25.4,45.7-37.9c4.1-3.4,4.2-6.4,0.8-10c-3-3.2-5.2-7-6.3-11.1c-1.7-6.3-5.4-7.8-11.4-7.7
			C327.7,76.5,296.6,76.4,265.5,76.4z M407.7,114.3c-2.6-0.2-4.7,0.2-6.9,2c-16,13.5-32.2,26.8-48.2,40.2
			c-28.3,23.6-56.5,47.4-85,70.9c-11.6,9.6-11.7,9.2-6.8,23.6c1.4,4.2,3.8,6.3,8.1,6.7c15.9,1.3,31.8,2.8,47.7,4.1
			c28.2,2.4,56.5,4.4,84.7,7.3c5.9,0.6,9.2-0.6,12.1-5.5c6.6-11,16.9-17.2,29-20.5c9.2-2.4,9.4-2.8,7.8-12.4
			c-2.2-12.9-4.1-25.8-6.1-38.7c-3.7-24-7.4-48-11.1-72c-0.7-4.2-2.7-6.6-7.3-5.5C419.7,115.9,413.7,115.9,407.7,114.3z M268,281.6
			c-5.6-2.9-9.3,1.4-12.3,8.4c-1.7,3.8-4.7,7.1-7.5,10.3c-2.2,2.4-2.3,4.5-1.1,7.3c13,28.5,26,57,38.6,85.6
			c3.1,7.1,7.2,11.3,15.1,12c4.5,0.4,8.7,2.4,12.5,4.9c4,2.6,7,1.4,10.2-1.3c30.2-25.6,60.5-51.1,90.9-76.5c3.4-2.8,4-5.4,1.2-8.5
			c-6-6.6-8.8-14.7-10.2-23.2c-1.1-6.1-4.3-7.4-9.7-7.7c-17.5-1.2-35-2.7-52.5-4.3C318.9,286.4,294.8,284,268,281.6z M163.8,286.4
			c-19,2.9-36.3,5.5-53.6,8c-3.5,0.5-3.9,3.1-4.5,5.8c-1.7,7.8-4.1,15.5-9.2,21.5c-4.3,5.1-2.8,7.3,1.9,10.4
			c21,13.9,41.8,28.1,62.7,42.2c25.6,17.2,51.2,34.3,76.7,51.6c4.2,2.8,6.5,3.1,9.7-1.6c3.2-4.8,7.5-9.1,12.7-12
			c4.4-2.4,5.1-5.1,2.9-9.8c-12.3-26.8-24.4-53.6-36.3-80.6c-2.3-5.3-4.8-7.6-10.9-7.3c-20.3,1.2-36.4-6.2-47.3-23.9
			C167.2,288.4,165.5,286,163.8,286.4z M106.5,270.1c16.7-2.4,33.4-4.8,50.1-7.4c3.9-0.6,5.3-3.6,5.8-7.3
			c1.6-10.9,6.5-20.2,14.5-27.5c4.1-3.8,4.3-7,2.2-11.7c-15.9-34.8-31.7-69.7-47.5-104.5c-1.3-2.8-1.7-7.2-6.7-5.9
			c-5.2,1.3-11.6-1.2-14,7.2c-5.3,18.4-11.6,36.5-17.6,54.7c-7.3,22.5-14.7,44.9-22,67.5c-1.2,3.7-3.1,7.8,2.8,10
			c11,4,19.5,11.1,25.2,21.4C100.8,269.3,103.2,270.6,106.5,270.1z"/>
	</g>
</g>
</svg>
